<svg width="82" height="82" viewBox="0 0 82 82" fill="none" xmlns="http://www.w3.org/2000/svg">
<mask id="mask0_232_15973" style="mask-type:luminance" maskUnits="userSpaceOnUse" x="3" y="12" width="58" height="59">
<path d="M3.32811 70.296L3.70989 12.9781L60.4845 13.3563L60.1027 70.6741L3.32811 70.296Z" fill="white"/>
</mask>
<g mask="url(#mask0_232_15973)">
<path d="M31.9949 13.2643C29.5956 37.7325 27.7851 39.5451 3.50209 41.6407C27.755 44.063 29.5421 45.9012 31.6142 70.4101C34.0018 45.9309 35.8368 44.1168 60.108 42.0177C35.8668 39.5989 34.0562 37.7622 31.9949 13.2643Z" fill="#FFC555"/>
</g>
<path d="M56.3073 52.0915C65.5406 53.016 66.2268 53.719 67.0184 63.0489C67.9214 53.7303 68.633 53.0365 77.8879 52.2352C68.6435 51.3259 67.9421 50.6228 67.1633 41.2811C66.2475 50.6115 65.552 51.3053 56.3073 52.0915Z" fill="#FFB11A"/>
<path d="M52.925 18.2264C46.9255 17.6246 46.4856 17.167 45.9592 11.1C45.3671 17.1587 44.9238 17.6113 38.9142 18.1331C44.9163 18.7298 45.3536 19.1891 45.8649 25.2551C46.4721 19.1965 46.918 18.7431 52.925 18.2264Z" fill="#FFB11A"/>
</svg>
